<svg width="15" height="13" viewBox="0 0 15 13" fill="none" xmlns="http://www.w3.org/2000/svg">
<path d="M13.0262 1.58877C13.0979 1.33668 13.2056 1.13255 13.3495 0.976379C13.4932 0.808207 13.6491 0.724022 13.8171 0.723821C14.2251 0.723335 14.5192 0.800985 14.6994 0.95677C14.8796 1.11256 14.9699 1.38245 14.9704 1.76645C14.9705 1.87445 14.8869 2.18055 14.7195 2.68475C14.3488 3.82519 13.9425 5.23568 13.5005 6.9162C13.393 7.30033 13.3034 7.63644 13.2317 7.92452C13.1721 8.2126 13.1184 8.45266 13.0706 8.64472C12.7841 9.88106 12.5332 10.8114 12.3179 11.4356C12.2461 11.6157 12.1203 11.7599 11.9404 11.8681C11.7605 11.9643 11.5686 12.0125 11.3646 12.0128C11.1606 12.013 10.9566 11.9712 10.7525 11.8875C10.5603 11.7917 10.4222 11.6839 10.3381 11.564C9.96519 10.8324 9.50201 9.83697 8.94851 8.57763C8.40699 7.30627 7.98567 6.19678 7.68454 5.24913C6.94278 7.13402 6.27895 8.95281 5.69304 10.7055C5.65717 10.8136 5.61531 10.9336 5.56747 11.0657C5.53161 11.1857 5.48976 11.3118 5.44192 11.4438C5.35813 11.6239 5.23831 11.7681 5.08243 11.8762C4.92655 11.9724 4.75261 12.0206 4.56061 12.0209C4.34461 12.0211 4.13456 11.9794 3.93046 11.8956C3.72634 11.7999 3.58821 11.692 3.51607 11.5721C3.35976 11.3083 3.19127 10.9005 3.01061 10.3487C2.84195 9.79691 2.61303 9.02318 2.32385 8.02752L1.87202 6.49806C1.55884 5.50243 1.28762 4.48276 1.05838 3.43903C0.829132 2.3953 0.714389 1.77144 0.714145 1.56744C0.713845 1.31544 0.839609 1.11729 1.09144 0.972987C1.34325 0.816687 1.59516 0.738387 1.84716 0.738086C1.99116 0.737915 2.14121 0.785736 2.29733 0.88155C2.45343 0.965365 2.55561 1.11524 2.60387 1.33118C3.02654 3.57468 3.64764 6.17795 4.46717 9.14097C4.77829 8.3966 5.11921 7.49019 5.48993 6.42175C5.87266 5.35329 6.23742 4.31486 6.58422 3.30644L6.76358 2.76623C6.81136 2.58617 6.9312 2.44803 7.12309 2.3518C7.32696 2.24356 7.53089 2.18931 7.73489 2.18907C7.99889 2.18876 8.21497 2.2545 8.38313 2.3863C8.55128 2.5181 8.65946 2.66197 8.70764 2.81791C8.7197 2.8659 8.96055 3.57961 9.43019 4.95905C9.89984 6.33849 10.4595 7.72983 11.1092 9.13306C11.3483 8.42477 11.635 7.29043 11.9691 5.73003L12.2377 4.54171C12.5602 3.26932 12.823 2.28501 13.0262 1.58877Z" fill="#0C9559"/>
</svg>
